IKresults-template
version=1
nRows=17
nColumns=31
inDegrees=yes

Units are S.I. units (second, meters, Newtons, ...). First line should follow naming scheme of "IK<condition>-<trial>" (e.g. IK15-3).
If the header above contains a line with 'inDegrees', this indicates whether rotational values are in degrees (yes) or radians (no).

endheader
time	gndpitch	gndroll	gndyaw	spine_tx	spine_ty	spine_tz	pitch2	roll2	yaw2	aux7jnt_r3	aux7jnt_r1	aux7jnt_r2	aux6jnt_r3	aux6jnt_r1	aux6jnt_r2	aux5jnt_r3	aux5jnt_r1	aux5jnt_r2	aux4jnt_r3	aux4jnt_r1	aux4jnt_r2	aux3jnt_r3	aux3jnt_r1	aux3jnt_r2	pitch1	roll1	yaw1	aux1jnt_r3	aux1jnt_r1	aux1jnt_r2
      5.00000000	   -103.25210447	     38.26872361	    179.47369627	      0.41650115	      0.79647133	     -0.70855471	     -2.93832886	      0.76787371	      3.90366852	     -0.54946799	      0.10519861	      0.73388959	     -0.64643134	      0.12055626	      0.85490280	     -0.64643134	      0.16586060	      0.85490280	     -0.48482351	      0.16586060	      0.85490280	     -0.32321567	      0.15050339	      0.36694480	    -12.78993370	     -2.29060849	     -0.69372475	     -7.11119962	     -1.14530425	     -0.07700359
      5.01000000	   -103.30877711	     38.22475499	    179.47411304	      0.41646662	      0.79660491	     -0.70849762	     -3.03685592	      0.10714242	      0.25159194	     -0.56789256	      0.01467850	      0.04729928	     -0.66810726	      0.01682137	      0.05509860	     -0.66810726	      0.02314275	      0.05509860	     -0.50108044	      0.02314275	      0.05509860	     -0.33405363	      0.02099993	      0.02364964	    -12.60230955	     -2.70930761	      5.75556327	     -7.00688065	     -1.35465381	      0.63886874
      5.02000000	   -103.30465734	     38.22973479	    179.47483719	      0.41644176	      0.79657795	     -0.70849570	     -3.18547026	      0.70629355	      3.88021309	     -0.59568347	      0.09676213	      0.72947997	     -0.70080236	      0.11088816	      0.84976607	     -0.70080236	      0.15255929	      0.84976607	     -0.52560177	      0.15255929	      0.84976607	     -0.35040118	      0.13843367	      0.36473999	    -12.80604876	     -2.30815970	     -0.65684770	     -7.12015959	     -1.15407985	     -0.07291023
      5.03000000	   -103.29890557	     38.25342473	    179.47232159	      0.41646442	      0.79652630	     -0.70861552	     -3.29913836	      0.26787102	      1.53416965	     -0.61693942	      0.03669830	      0.28842386	     -0.72580931	      0.04205578	      0.33598292	     -0.72580931	      0.05786010	      0.33598292	     -0.54435698	      0.05786010	      0.33598292	     -0.36290465	      0.05250277	      0.14421193	    -12.71090696	     -2.52278370	      3.42679805	     -7.06726077	     -1.26139185	      0.38037531
      5.04000000	   -103.33331216	     38.24089704	    179.47527716	      0.41642159	      0.79660374	     -0.70856056	     -3.46421296	      0.67700152	      3.83299637	     -0.64780840	      0.09274913	      0.72060323	     -0.76212566	      0.10628931	      0.83942561	     -0.76212566	      0.14623222	      0.83942561	     -0.57159425	      0.14623222	      0.83942561	     -0.38106283	      0.13269242	      0.36030161	    -12.80306083	     -2.30185139	     -0.59431675	     -7.11849830	     -1.15092570	     -0.06596928
      5.05000000	   -103.35959765	     38.24994345	    179.47625379	      0.41646348	      0.79663425	     -0.70860387	     -3.53252467	      0.68961964	      3.91869125	     -0.66058270	      0.09447781	      0.73671387	     -0.77715421	      0.10827036	      0.85819278	     -0.77715421	      0.14895773	      0.85819278	     -0.58286566	      0.14895773	      0.85819278	     -0.38857711	      0.13516557	      0.36835693	    -12.84600477	     -2.27359018	     -0.76090651	     -7.14237512	     -1.13679509	     -0.08446078
      5.06000000	   -103.37060371	     38.23048774	    179.47679214	      0.41642844	      0.79667224	     -0.70856548	     -3.57248634	      0.66131498	      3.80319641	     -0.66805554	      0.09060007	      0.71500084	     -0.78594577	      0.10382652	      0.83289942	     -0.78594577	      0.14284393	      0.83289942	     -0.58945932	      0.14284393	      0.83289942	     -0.39297288	      0.12961786	      0.35750042	    -12.83914597	     -2.27921142	     -0.55511136	     -7.13856163	     -1.13960571	     -0.06161748
      5.07000000	   -103.33100688	     38.24808933	    179.47543249	      0.41643137	      0.79657908	     -0.70861731	     -3.56431932	      0.29161485	      1.67079709	     -0.66652830	      0.03995120	      0.31410981	     -0.78414902	      0.04578356	      0.36590430	     -0.78414902	      0.06298876	      0.36590430	     -0.58811177	      0.06298876	      0.36590430	     -0.39207451	      0.05715656	      0.15705491	    -12.71184806	     -2.50666489	      3.18083763	     -7.06778403	     -1.25333244	      0.35307365
      5.08000000	   -103.33427983	     38.19987143	    179.47809175	      0.41634336	      0.79660868	     -0.70851023	     -3.58583429	      0.18727066	      1.24238403	     -0.67055161	      0.02565606	      0.23356817	     -0.78888231	      0.02940151	      0.27208191	     -0.78888231	      0.04045043	      0.27208191	     -0.59166173	      0.04045043	      0.27208191	     -0.39444116	      0.03670508	      0.11678408	    -12.68370518	     -2.54173926	      3.93855725	     -7.05213659	     -1.27086963	      0.43718069
      5.09000000	   -103.31238247	     38.21116530	    179.47692669	      0.41632186	      0.79652948	     -0.70851077	     -3.63978196	      0.66284341	      3.74325618	     -0.68063983	      0.09080947	      0.70373208	     -0.80075078	      0.10406649	      0.81977252	     -0.80075078	      0.14317407	      0.81977252	     -0.60056308	      0.14317407	      0.81977252	     -0.40037539	      0.12991743	      0.35186604	    -12.80881206	     -2.31604189	     -0.46571208	     -7.12169598	     -1.15802094	     -0.05169414
      5.10000000	   -103.26987158	     38.20903354	    179.47941328	      0.41626213	      0.79645141	     -0.70849798	     -3.67047323	      0.62089885	      3.49769463	     -0.68637910	      0.08506307	      0.65756651	     -0.80750285	      0.09748119	      0.76599458	     -0.80750285	      0.13411405	      0.76599458	     -0.60562714	      0.13411405	      0.76599458	     -0.40375142	      0.12169629	      0.32878326	    -12.78426895	     -2.34246817	     -0.07227992	     -7.10805002	     -1.17123409	     -0.00802309
      5.11000000	   -103.37345706	     38.21819126	    179.47827178	      0.41636047	      0.79665843	     -0.70854054	     -3.77906027	      0.67821917	      3.94481225	     -0.70668490	      0.09291594	      0.74162461	     -0.83139196	      0.10648048	      0.86391327	     -0.83139196	      0.14649523	      0.86391327	     -0.62354397	      0.14649523	      0.86391327	     -0.41569598	      0.13293108	      0.37081231	    -12.84680898	     -2.29885808	     -0.80776419	     -7.14282226	     -1.14942904	     -0.08966200
      5.12000000	   -103.34349832	     38.17690229	    179.47712434	      0.41628544	      0.79658551	     -0.70851767	     -3.84767290	     -0.12274945	     -0.25204592	     -0.71951547	     -0.01681666	     -0.04738463	     -0.84648672	     -0.01927168	     -0.05519802	     -0.84648672	     -0.02651386	     -0.05519802	     -0.63486504	     -0.02651386	     -0.05519802	     -0.42324336	     -0.02405891	     -0.02369231	    -12.62223709	     -2.76273157	      6.52562581	     -7.01796035	     -1.38136579	      0.72434585
      5.13000000	   -103.39182470	     38.22947086	    179.47834391	      0.41637462	      0.79668652	     -0.70863135	     -3.97854539	      0.59617699	      3.78280497	     -0.74398865	      0.08167618	      0.71116725	     -0.87527862	      0.09359985	      0.82843370	     -0.87527862	      0.12877413	      0.82843370	     -0.65645896	      0.12877413	      0.82843370	     -0.43763931	      0.11685080	      0.35558362	    -12.85119531	     -2.30815336	     -0.55552034	     -7.14526106	     -1.15407668	     -0.06166288
      5.14000000	   -103.42983993	     38.21970477	    179.48208227	      0.41639742	      0.79673797	     -0.70864220	     -4.04103408	      0.00134250	      0.76139214	     -0.75567404	      0.00018392	      0.14314171	     -0.88902611	      0.00021077	      0.16674476	     -0.88902611	      0.00028998	      0.16674476	     -0.66676958	      0.00028998	      0.16674476	     -0.44451305	      0.00026313	      0.07157085	    -12.73154733	     -2.59666662	      4.78213986	     -7.07873681	     -1.29833331	      0.53081854
      5.15000000	   -103.38931965	     38.22485133	    179.47964465	      0.41633376	      0.79662107	     -0.70859526	     -4.12426934	      0.59553549	      3.86403556	     -0.77123905	      0.08158829	      0.72643860	     -0.90733784	      0.09349914	      0.84622319	     -0.90733784	      0.12863557	      0.84622319	     -0.68050338	      0.12863557	      0.84622319	     -0.45366892	      0.11672507	      0.36321930	    -12.87950157	     -2.28111075	     -0.74442903	     -7.16099933	     -1.14055537	     -0.08263178
      5.16000000	   -103.34012645	     38.17086494	    179.47801177	      0.41621583	      0.79655278	     -0.70852055	     -4.11480972	     -0.00258982	      0.68613933	     -0.76947010	     -0.00035481	      0.12899418	     -0.90525672	     -0.00040660	      0.15026441	     -0.90525672	     -0.00055940	      0.15026441	     -0.67894254	     -0.00055940	      0.15026441	     -0.45262836	     -0.00050761	      0.06449709	    -12.71788755	     -2.65919416	      4.81942408	     -7.07114198	     -1.32959708	      0.53495710
